<svg width="337" height="280" viewBox="0 0 337 280" fill="none" xmlns="http://www.w3.org/2000/svg">
<path d="M222.08 92.788L198.278 74.8696L191.847 83.4121L215.651 101.329L222.08 92.788Z" fill="#2F2F30"/>
<path d="M143.704 151.861L164.043 167.172C164.517 167.529 164.856 167.994 165.084 168.503L168.835 163.522L145.032 145.604L140.729 151.32C141.72 151.042 142.823 151.199 143.704 151.861Z" fill="#2F2F30"/>
<path d="M163.233 173.059C163.802 172.838 164.322 172.47 164.716 171.948C165.487 170.925 165.575 169.603 165.084 168.503C164.856 167.994 164.517 167.529 164.043 167.172L143.704 151.861C142.823 151.199 141.72 151.042 140.729 151.319C140.034 151.515 139.392 151.918 138.927 152.536C138.534 153.057 138.325 153.659 138.269 154.268L163.233 173.059Z" fill="#535355"/>
<path d="M101.518 206.072C97.102 211.939 98.2779 220.274 104.144 224.691C110.01 229.106 118.345 227.93 122.761 222.065L123.001 221.745L101.758 205.755L101.518 206.072" fill="#2F2F30"/>
<path d="M138.282 121.007C138.863 123.473 139.608 126.61 140.215 129.104L150.793 115.053L141.02 116.429L141.638 120.462L138.282 121.007Z" fill="#535355"/>
<path d="M138.282 121.007L141.638 120.462L141.02 116.429L139.263 104.96L125.634 123.064L138.282 121.007" fill="#535355"/>
<path d="M187.089 159.882L185.225 162.357L184.824 162.891C187.48 162.782 190.917 162.619 193.554 162.49L193.168 159.251L197.062 158.748L195.623 148.546L187.089 159.882Z" fill="#535355"/>
<path d="M193.554 162.49L195.331 177.348L210.652 156.997L197.062 158.748L193.168 159.251L193.554 162.49" fill="#535355"/>
<path d="M260.03 210.52L259.644 207.28L263.537 206.778L262.478 199.262L253.782 210.814C255.892 210.719 258.163 210.612 260.03 210.52" fill="#535355"/>
<path d="M260.03 210.52L260.326 212.986L265.157 206.568L263.537 206.778L259.644 207.279L260.03 210.52" fill="#535355"/>
<path d="M78.4949 73.8666L78.1076 70.6258L81.8247 70.148L81.9767 69.9455L80.6858 60.7939L70.5696 74.2332C73.0892 74.1256 76.1168 73.9833 78.4949 73.8666" fill="#535355"/>
<path d="M81.8247 70.148L78.1075 70.6258L78.4949 73.8666L78.5675 74.4739L81.8247 70.148Z" fill="#535355"/>
<path d="M176.174 168.667L176.249 168.693C176.11 168.647 175.981 168.583 175.846 168.53C175.955 168.574 176.063 168.627 176.174 168.667Z" fill="white"/>
<path d="M178.186 153.18L187.089 159.882L195.623 148.546L199.225 143.762L181.069 130.095L178.186 153.18Z" fill="white"/>
<path d="M189.741 107.041L195.612 111.461L194.251 113.269L188.379 108.848L189.741 107.041ZM206.261 115.216L200.388 110.796L201.749 108.988L207.621 113.409L206.261 115.216ZM193.148 102.514L199.02 106.935L197.66 108.742L191.787 104.321L193.148 102.514ZM202.852 119.743L196.98 115.322L198.34 113.515L204.212 117.936L202.852 119.743ZM198.696 125.265L192.823 120.844L194.184 119.037L200.056 123.458L198.696 125.265ZM195.287 129.792L189.416 125.371L190.777 123.564L196.649 127.984L195.287 129.792ZM184.222 114.37L185.583 112.563L191.455 116.984L190.095 118.791L184.222 114.37ZM182.65 117.447L188.049 121.51L186.686 123.317L182.326 120.035L181.543 126.301L201.218 141.112L222.43 112.933C224.15 110.648 223.69 107.38 221.403 105.66L215.651 101.329L191.847 83.412L184.996 78.2526L187.326 80.0071L182.65 117.447" fill="white"/>
<path d="M185.096 162.53L177.713 156.971L176.249 168.692C178.264 169.267 180.535 168.589 181.862 166.825L184.824 162.891L185.225 162.357L185.096 162.53" fill="white"/>
<path d="M98.9994 197.346C97.3188 199.578 97.7661 202.749 99.9991 204.431L101.758 205.755L123.001 221.746L123.651 222.234C125.883 223.916 129.055 223.467 130.736 221.235L137.627 212.08L105.891 188.19L98.9994 197.346" fill="#747576"/>
<path d="M158.134 179.148L152.262 174.727L153.623 172.92L159.494 177.341L158.134 179.148ZM154.726 183.675L148.854 179.256L150.215 177.448L156.087 181.867L154.726 183.675ZM150.57 189.197L144.698 184.776L146.058 182.969L151.93 187.39L150.57 189.197ZM147.162 193.723L141.29 189.305L142.65 187.497L148.523 191.916L147.162 193.723ZM140.254 172.781L141.614 170.974L147.486 175.393L146.126 177.2L140.254 172.781ZM150.894 170.866L149.534 172.674L143.661 168.253L145.022 166.446L150.894 170.866ZM167.097 175.967L163.233 173.059L138.269 154.268L137.856 153.957L138.877 177.563L143.33 180.915L141.969 182.723L139.003 180.49L139.194 184.893L139.922 185.442L139.255 186.328L139.444 190.678L155.059 202.432L168.341 184.789C170.424 182.02 169.862 178.05 167.097 175.967" fill="white"/>
<path d="M139.629 194.967L140.45 213.954L140.525 213.978C143.108 215.012 146.155 214.261 147.906 211.934L154.425 203.274L153.065 205.08L139.629 194.967" fill="white"/>
<path d="M233.129 185.281L233.24 186.13C240.948 191.931 248.655 197.732 256.363 203.533L271.9 181.608C273.351 179.748 273.04 177.067 271.196 175.592L252.446 159.619C249.489 163.546 246.534 167.472 243.579 171.399C240.094 176.028 236.611 180.654 233.129 185.281" fill="#DCA0FF"/>
<path d="M250.032 157.643C250.045 157.628 250.06 157.613 250.073 157.599L226.732 137.72L232.537 180.886C238.37 173.139 244.202 165.39 250.032 157.643Z" fill="#DCA0FF"/>
<path d="M254.561 206.078C251.338 203.652 248.118 201.228 244.895 198.803C241.206 196.025 237.516 193.247 233.825 190.47L238.897 228.181L254.561 206.078" fill="#DCA0FF"/>
<path d="M232.761 185.768C232.922 185.889 233.083 186.009 233.241 186.129L233.128 185.281C233.006 185.444 232.884 185.606 232.761 185.768" fill="#B53BFE"/>
<path d="M183.487 193.082C181.979 195.086 182.375 197.896 184.361 199.392L230.553 234.163L230.768 234.295C231.773 234.971 232.955 235.194 234.065 234.999L238.897 228.182L233.825 190.47C232.845 189.733 231.866 188.995 230.887 188.258C224.066 197.322 217.243 206.384 210.421 215.448C209.914 216.121 209.071 216.488 208.274 216.01C207.608 215.612 207.198 214.547 207.712 213.865C210.767 209.807 213.82 205.749 216.875 201.692C220.716 196.589 224.556 191.486 228.397 186.385C220.643 180.547 212.888 174.709 205.133 168.871C204.459 168.364 204.092 167.522 204.57 166.725C204.969 166.059 206.034 165.649 206.716 166.163C210.069 168.687 213.422 171.211 216.776 173.735C221.276 177.122 225.773 180.509 230.272 183.894C231.027 182.892 231.782 181.889 232.537 180.886L226.732 137.72C226.065 137.813 225.421 138.083 224.868 138.484C224.493 138.734 224.161 139.049 223.874 139.431L210.652 156.997L195.331 177.348L183.487 193.082" fill="#B53BFE"/>
<path d="M233.128 185.281C236.611 180.655 240.095 176.028 243.578 171.399C246.534 167.472 249.489 163.546 252.445 159.619L250.073 157.599C250.06 157.613 250.045 157.628 250.032 157.642C244.202 165.39 238.369 173.139 232.537 180.886C231.782 181.889 231.027 182.892 230.272 183.893C231.102 184.519 231.932 185.145 232.761 185.768C232.884 185.606 233.006 185.444 233.128 185.281Z" fill="white"/>
<path d="M216.875 201.691C213.82 205.749 210.767 209.807 207.712 213.865C207.198 214.547 207.608 215.612 208.274 216.01C209.071 216.488 209.913 216.121 210.42 215.448C217.243 206.384 224.066 197.322 230.887 188.258C230.057 187.634 229.227 187.008 228.397 186.385C224.556 191.486 220.716 196.589 216.875 201.691" fill="white"/>
<path d="M254.561 206.078L256.363 203.534C248.655 197.732 240.948 191.931 233.241 186.129C233.082 186.009 232.922 185.889 232.761 185.768C231.932 185.145 231.102 184.519 230.272 183.894C225.773 180.509 221.275 177.122 216.776 173.735C213.422 171.211 210.068 168.687 206.716 166.163C206.034 165.649 204.969 166.059 204.57 166.725C204.092 167.522 204.459 168.364 205.133 168.871C212.888 174.709 220.643 180.547 228.397 186.385C229.227 187.008 230.057 187.634 230.887 188.258C231.866 188.995 232.845 189.733 233.825 190.47C237.516 193.248 241.205 196.025 244.895 198.803C248.117 201.228 251.338 203.652 254.561 206.078" fill="white"/>
<path d="M252.444 159.62L271.197 175.592C273.038 177.068 273.35 179.749 271.899 181.609L256.362 203.534L254.56 206.078L238.897 228.182L234.066 234.999L234.062 235.004C236.042 236.337 235.412 235.216 236.878 233.272L253.781 210.814L262.477 199.263L276.81 180.223C278.304 178.237 277.927 175.441 275.977 173.942L230.238 138.57C228.611 137.313 228.201 137.208 226.731 137.721L250.071 157.599L252.444 159.62" fill="white"/>
<path d="M291.373 229.888C299.241 235.81 307.106 241.732 314.974 247.653L330.511 225.726C331.964 223.868 331.65 221.185 329.807 219.71L311.056 203.739C308.101 207.666 305.145 211.592 302.188 215.519C298.583 220.308 294.978 225.099 291.373 229.888" fill="#DCA0FF"/>
<path d="M308.643 201.763C308.655 201.746 308.669 201.734 308.682 201.719L285.344 181.84L290.689 225.614C296.674 217.664 302.658 209.713 308.643 201.763" fill="#DCA0FF"/>
<path d="M303.507 242.923C299.579 239.965 295.648 237.008 291.72 234.05L296.556 273.644L313.17 250.198C309.948 247.772 306.728 245.348 303.507 242.923Z" fill="#DCA0FF"/>
<path d="M296.8 275.647L295.486 277.39L296.8 275.647Z" fill="#B53BFE"/>
<path d="M260.326 212.986L242.096 237.2C240.588 239.206 240.985 242.016 242.971 243.51L289.162 278.282L289.377 278.413C290.382 279.091 291.565 279.314 292.676 279.119L296.556 273.644L291.719 234.05C290.978 233.492 290.238 232.936 289.497 232.378C282.676 241.442 275.852 250.504 269.031 259.568C268.523 260.241 267.682 260.608 266.885 260.13C266.217 259.731 265.809 258.666 266.322 257.983C269.376 253.926 272.431 249.87 275.485 245.81C279.327 240.709 283.168 235.606 287.008 230.503C279.252 224.665 271.497 218.828 263.743 212.99C263.07 212.484 262.703 211.642 263.179 210.845C263.58 210.177 264.644 209.769 265.327 210.281C268.679 212.806 272.032 215.33 275.386 217.855C279.884 221.24 284.384 224.627 288.881 228.014C289.486 227.213 290.088 226.414 290.688 225.614L285.343 181.84C284.674 181.933 284.032 182.203 283.48 182.604C283.102 182.854 282.771 183.17 282.484 183.551L265.157 206.568L260.326 212.986Z" fill="#B53BFE"/>
<path d="M291.369 229.889C294.976 225.1 298.581 220.309 302.188 215.52C305.142 211.593 308.099 207.667 311.054 203.74L308.681 201.719C308.669 201.734 308.654 201.747 308.644 201.763C302.658 209.713 296.674 217.664 290.689 225.614C290.086 226.415 289.484 227.214 288.881 228.014C289.711 228.64 290.54 229.263 291.369 229.889" fill="white"/>
<path d="M275.485 245.81C272.432 249.87 269.377 253.926 266.322 257.983C265.81 258.665 266.219 259.73 266.885 260.13C267.683 260.608 268.523 260.241 269.031 259.568C275.853 250.504 282.676 241.442 289.499 232.378C288.668 231.752 287.84 231.129 287.009 230.503C283.168 235.606 279.328 240.709 275.485 245.81" fill="white"/>
<path d="M313.17 250.198L314.972 247.654C307.105 241.732 299.239 235.81 291.37 229.889C290.541 229.263 289.71 228.639 288.882 228.014C284.383 224.627 279.885 221.24 275.385 217.856C272.033 215.33 268.68 212.806 265.326 210.282C264.643 209.769 263.579 210.178 263.18 210.845C262.704 211.642 263.069 212.485 263.744 212.99C271.498 218.828 279.253 224.665 287.009 230.503C287.838 231.129 288.669 231.752 289.498 232.378C290.239 232.936 290.98 233.492 291.719 234.05C295.647 237.008 299.577 239.965 303.506 242.923C306.727 245.349 309.948 247.772 313.17 250.198" fill="white"/>
<path d="M311.054 203.74L329.805 219.71C331.647 221.186 331.963 223.869 330.508 225.727L314.971 247.654L313.169 250.198L296.556 273.644L292.676 279.119L292.674 279.124C294.651 280.458 294.025 279.336 295.487 277.39L296.8 275.647L335.42 224.343C336.914 222.357 336.538 219.561 334.589 218.062L288.85 182.688C287.221 181.432 286.812 181.328 285.343 181.84L308.681 201.719L311.054 203.74" fill="white"/>
<path d="M67.4628 20.2097C67.4746 20.1934 67.4889 20.1811 67.5014 20.1647L44.162 0.285353L49.5084 44.0601C55.4931 36.1099 61.4779 28.1598 67.4628 20.2097" fill="#DCA0FF"/>
<path d="M50.1906 48.3371C58.0573 54.2581 65.9244 60.1809 73.7912 66.1018L89.3282 44.1766C90.7805 42.3169 90.4668 39.6343 88.6254 38.1603L69.8741 22.1885C66.9184 26.1141 63.9624 30.0417 61.0069 33.9673C57.4012 38.7579 53.796 43.5466 50.1906 48.3371" fill="#DCA0FF"/>
<path d="M71.9889 68.6452C68.7676 66.2196 65.5463 63.7958 62.3248 61.3702C58.3961 58.4121 54.4672 55.4558 50.5385 52.4977L55.3743 92.0913L71.9889 68.6452Z" fill="#DCA0FF"/>
<path d="M55.6191 94.0939L54.3065 95.8374L55.6191 94.0939Z" fill="#B53BFE"/>
<path d="M1.78929 61.957L47.9817 96.7291L48.1973 96.8599C49.2026 97.5384 50.3837 97.7591 51.4955 97.565L55.3745 92.0918L50.5388 52.4966C49.7982 51.9386 49.0575 51.3807 48.3171 50.8248C41.4945 59.8867 34.6721 68.9507 27.8495 78.0146C27.3427 78.687 26.5013 79.0549 25.7036 78.5766C25.0373 78.1781 24.6276 77.1133 25.141 76.4307C28.1957 72.3739 31.2499 68.3151 34.3049 64.2583C38.1458 59.1551 41.9866 54.0519 45.8276 48.9507C38.0723 43.1118 30.3171 37.2749 22.5618 31.4359C21.8886 30.9311 21.5217 30.0891 21.9993 29.292C22.3987 28.6237 23.4633 28.215 24.1451 28.728C27.4986 31.252 30.852 33.778 34.2053 36.302C38.7042 39.6885 43.2029 43.075 47.7015 46.4614C48.3038 45.6603 48.9061 44.8612 49.5084 44.0601L44.162 0.285358C43.4941 0.379369 42.8511 0.64915 42.2987 1.04972C41.9214 1.3011 41.5901 1.61583 41.303 1.99597L0.917224 55.648C-0.592072 57.6529 -0.195587 60.463 1.78929 61.957Z" fill="#B53BFE"/>
<path d="M50.1906 48.3362C53.796 43.5472 57.4013 38.7581 61.0069 33.9672C63.9623 30.041 66.9186 26.1149 69.8741 22.1887L67.5007 20.167C67.4882 20.1824 67.474 20.1958 67.4621 20.2112C61.4773 28.1615 55.4926 36.1119 49.5078 44.0622C48.9055 44.8636 48.3035 45.663 47.701 46.4625C48.531 47.087 49.3606 47.7116 50.1906 48.3362" fill="white"/>
<path d="M34.3045 64.2592C31.2497 68.317 28.1955 72.3749 25.1407 76.4327C24.6275 77.1148 25.0371 78.178 25.7035 78.5774C26.501 79.0553 27.3425 78.6887 27.8493 78.0157C34.6718 68.9517 41.4943 59.8895 48.3168 50.8254C47.4868 50.1999 46.6571 49.5762 45.8273 48.9525C41.9863 54.0535 38.1455 59.1563 34.3045 64.2592Z" fill="white"/>
<path d="M71.9886 68.6453L73.7913 66.1026C65.9245 60.1803 58.0574 54.258 50.1906 48.3356C49.3607 47.7121 48.5311 47.0868 47.7011 46.4633C43.2023 43.0761 38.7038 39.689 34.205 36.3038C30.8516 33.7798 27.4984 31.254 24.1447 28.73C23.4628 28.217 22.3984 28.6271 21.999 29.2936C21.5214 30.0912 21.8883 30.9319 22.5615 31.4393C30.3166 37.2774 38.0718 43.1136 45.8272 48.9517C46.657 49.577 47.4865 50.2005 48.3165 50.8259C49.057 51.3839 49.7976 51.9418 50.5383 52.4979C54.4669 55.4563 58.3959 58.4128 62.3247 61.3711C65.5461 63.7958 68.7673 66.2205 71.9886 68.6453" fill="white"/>
<path d="M69.874 22.1881L88.6252 38.1597C90.4666 39.6354 90.7803 42.3168 89.3281 44.1774L73.7911 66.1033L71.9884 68.6454L55.3739 92.0921L51.4949 97.5674L51.4915 97.5715C53.4716 98.9061 52.8424 97.7844 54.3063 95.8399L55.6187 94.096L70.5693 74.2354L80.6855 60.7958L94.2391 42.7896C95.7337 40.8062 95.3569 38.0102 93.4073 36.5099L47.668 1.13826C46.0393 -0.120556 45.6313 -0.222898 44.1615 0.288814L67.5007 20.1678L69.874 22.1881" fill="white"/>
<path d="M109.718 91.2378L110.036 93.3861C117.492 98.9978 124.947 104.61 132.402 110.221L147.939 88.2942C149.391 86.434 149.078 83.7531 147.236 82.2777L128.485 66.3071C125.529 70.2336 122.573 74.1602 119.617 78.0867C116.317 82.471 113.018 86.8535 109.718 91.2378Z" fill="#DCA0FF"/>
<path d="M126.072 64.3303C126.084 64.3139 126.099 64.3011 126.111 64.2847L102.772 44.4058L109.076 86.9102C114.741 79.3835 120.407 71.8569 126.072 64.3303" fill="#DCA0FF"/>
<path d="M130.6 112.765C127.378 110.34 124.157 107.914 120.935 105.49C117.519 102.919 114.104 100.347 110.687 97.7758L115.972 133.406L130.6 112.765" fill="#DCA0FF"/>
<path d="M108.801 92.4561C109.213 92.7662 109.625 93.0762 110.036 93.3862L109.718 91.2379C109.412 91.6427 109.107 92.0494 108.801 92.4561" fill="#B53BFE"/>
<path d="M78.5675 74.4739L59.5272 99.7675C58.018 101.774 58.4149 104.584 60.3993 106.078L106.592 140.851L106.807 140.981C107.812 141.657 108.994 141.882 110.105 141.686L115.972 133.407L110.687 97.776C109.434 96.8313 108.18 95.8884 106.927 94.9455C100.104 104.008 93.2819 113.072 86.4594 122.134C85.953 122.809 85.1111 123.175 84.3136 122.698C83.6472 122.298 83.2379 121.233 83.7511 120.553C86.8056 116.495 89.8604 112.435 92.9146 108.379C96.7556 103.276 100.597 98.1736 104.438 93.0707C96.6825 87.2329 88.9273 81.3951 81.1722 75.5572C80.499 75.0502 80.1316 74.2095 80.6097 73.4125C81.0086 72.745 82.0735 72.3365 82.7556 72.849C86.1085 75.373 89.4619 77.8971 92.8152 80.423C97.314 83.8079 101.813 87.1946 106.311 90.5813C107.233 89.3576 108.154 88.1338 109.076 86.9101L102.772 44.4057C102.104 44.5005 101.462 44.7705 100.908 45.1717C100.532 45.4215 100.2 45.7371 99.9132 46.1182L81.9766 69.9455L81.8247 70.148L78.5675 74.4739" fill="#B53BFE"/>
<path d="M109.718 91.2378C113.018 86.8535 116.317 82.471 119.617 78.0867C122.573 74.1602 125.529 70.2337 128.485 66.3071L126.111 64.2846C126.099 64.301 126.084 64.3138 126.072 64.3302C120.407 71.8568 114.741 79.3834 109.076 86.91C108.154 88.1338 107.233 89.3575 106.312 90.5812C107.141 91.2068 107.971 91.8305 108.801 92.4561C109.107 92.0494 109.412 91.6427 109.718 91.2378" fill="white"/>
<path d="M92.9146 108.379C89.8604 112.435 86.8056 116.495 83.7511 120.553C83.2379 121.233 83.6472 122.298 84.3136 122.698C85.1111 123.175 85.953 122.809 86.4594 122.134C93.2819 113.072 100.104 104.008 106.927 94.9456C106.097 94.32 105.267 93.6963 104.438 93.0708C100.597 98.1736 96.7556 103.276 92.9146 108.379" fill="white"/>
<path d="M130.6 112.765L132.402 110.221C124.947 104.61 117.492 98.9979 110.036 93.3862C109.625 93.0761 109.213 92.7661 108.801 92.4561C107.971 91.8305 107.141 91.2068 106.312 90.5812C101.813 87.1945 97.314 83.8078 92.8152 80.4229C89.4619 77.897 86.1085 75.373 82.7556 72.8489C82.0735 72.3364 81.0086 72.7449 80.6097 73.4124C80.1315 74.2094 80.499 75.0502 81.1722 75.5572C88.9273 81.395 96.6825 87.2328 104.438 93.0707C105.267 93.6962 106.097 94.3199 106.927 94.9455C108.18 95.8884 109.434 96.8312 110.687 97.776C114.103 100.347 117.519 102.919 120.935 105.49C124.157 107.914 127.378 110.34 130.6 112.765Z" fill="white"/>
<path d="M128.485 66.3072L147.236 82.2778C149.078 83.7532 149.391 86.4341 147.939 88.2943L132.402 110.221L130.6 112.765L115.972 133.407L110.105 141.687L110.102 141.69C112.082 143.025 111.453 141.904 112.917 139.958L125.634 123.064L139.263 104.96L152.85 86.9083C154.344 84.924 153.968 82.1282 152.018 80.6291L106.279 45.2556C104.65 43.9972 104.242 43.8951 102.772 44.4058L126.111 64.2846L128.485 66.3072" fill="white"/>
<path d="M239.092 48.7865C238.902 48.8084 238.712 48.8303 238.523 48.854L239.108 49.3154C239.114 49.2334 239.121 49.1531 239.114 49.0637C239.106 48.9707 239.099 48.8777 239.092 48.7865" fill="#212D4A"/>
<path d="M199.271 21.2789L197.652 21.5088L200.077 21.1659L199.271 21.2789Z" fill="#DFDFDF"/>
<path d="M238.912 83.152L197.653 21.5075L192.31 22.2615L197.157 74.0283L198.278 74.8703L222.079 92.7886L238.912 83.152" fill="#DFDFDF"/>
<path d="M222.08 92.7874L273.187 83.1421L272.091 75.3762L258.751 64.8364L255.094 61.9457L239.108 49.3159L238.522 48.8543L236.719 47.429L234.926 46.1436L220.095 35.5138L216.567 32.9833L200.077 21.1657L197.652 21.5086L238.913 83.1517L222.08 92.7874" fill="white"/>
<path d="M137.154 133.17C135.434 135.455 135.875 138.708 138.18 140.445L174.589 167.85C174.987 168.151 175.41 168.357 175.846 168.53C175.981 168.583 176.11 168.647 176.249 168.693L177.713 156.971L140.387 128.875L142.381 126.227L178.186 153.18L181.069 130.095L154.516 110.106L150.793 115.052L140.215 129.104L137.154 133.17" fill="#DFDFDF"/>
<path d="M182.326 120.035L180.816 118.897L182.176 117.09L182.65 117.447L187.326 80.0072L184.996 78.2528C182.69 76.5184 179.442 76.9925 177.721 79.2795L156.51 107.458L181.543 126.301L182.326 120.035Z" fill="#DFDFDF"/>
<path d="M139.255 186.328L138.561 187.249L132.689 182.83L134.05 181.023L139.194 184.893L139.003 180.49L136.097 178.302L137.457 176.495L138.877 177.563L137.856 153.957L132.452 149.89C129.666 147.792 125.715 148.367 123.632 151.134L110.35 168.778L139.444 190.678L139.255 186.328Z" fill="#DFDFDF"/>
<path d="M139.629 194.967L108.357 171.426L103.198 178.28C101.115 181.047 101.655 185.002 104.442 187.1L105.891 188.19L137.627 212.08L139.086 213.177C139.507 213.495 139.973 213.752 140.45 213.954L139.629 194.967" fill="#DFDFDF"/>
<path d="M199.02 106.935L193.148 102.514L191.787 104.321L197.66 108.742L199.02 106.935Z" fill="#747576"/>
<path d="M200.388 110.796L206.261 115.217L207.621 113.409L201.749 108.988L200.388 110.796Z" fill="#747576"/>
<path d="M195.612 111.461L189.741 107.041L188.379 108.848L194.251 113.269L195.612 111.461Z" fill="#747576"/>
<path d="M196.979 115.322L202.852 119.743L204.212 117.936L198.34 113.515L196.979 115.322Z" fill="#747576"/>
<path d="M191.455 116.984L185.583 112.563L184.222 114.37L190.095 118.791L191.455 116.984Z" fill="#747576"/>
<path d="M192.823 120.845L198.696 125.265L200.056 123.458L194.184 119.037L192.823 120.845Z" fill="#747576"/>
<path d="M188.049 121.51L182.65 117.447L182.176 117.09L180.816 118.897L182.326 120.035L186.686 123.318L188.049 121.51Z" fill="#747576"/>
<path d="M189.416 125.371L195.287 129.792L196.649 127.985L190.777 123.564L189.416 125.371Z" fill="#747576"/>
<path d="M149.534 172.674L150.894 170.867L145.022 166.446L143.661 168.253L149.534 172.674Z" fill="#747576"/>
<path d="M152.262 174.727L158.134 179.148L159.494 177.341L153.623 172.92L152.262 174.727" fill="#747576"/>
<path d="M147.486 175.393L141.614 170.974L140.254 172.781L146.126 177.2L147.486 175.393Z" fill="#747576"/>
<path d="M148.854 179.256L154.726 183.675L156.087 181.867L150.215 177.448L148.854 179.256Z" fill="#747576"/>
<path d="M136.097 178.302L139.003 180.49L141.969 182.723L143.33 180.915L138.877 177.563L137.457 176.495L136.097 178.302" fill="#747576"/>
<path d="M144.698 184.776L150.57 189.197L151.93 187.39L146.058 182.969L144.698 184.776Z" fill="#747576"/>
<path d="M132.689 182.83L138.561 187.249L139.255 186.328L139.922 185.442L139.194 184.893L134.05 181.023L132.689 182.83" fill="#747576"/>
<path d="M141.29 189.305L147.162 193.724L148.523 191.916L142.65 187.497L141.29 189.305Z" fill="#747576"/>
<path d="M199.225 143.762L201.218 141.112L181.543 126.301L156.51 107.458V107.456L154.516 110.106L181.069 130.095L199.225 143.762" fill="#747576"/>
<path d="M185.096 162.53L185.225 162.357L187.089 159.882L178.186 153.18L142.381 126.227L140.387 128.875L177.713 156.971L185.096 162.53Z" fill="#747576"/>
<path d="M110.35 168.778L110.35 168.777L108.357 171.426L139.629 194.967L153.065 205.08L154.425 203.275L155.059 202.432L139.444 190.678L110.35 168.778Z" fill="#747576"/>
<rect x="236.417" y="47.229" width="15.6697" height="6" transform="rotate(-51.7117 236.417 47.229)" fill="#DFDFDF"/>
<circle cx="251" cy="34" r="8" fill="white"/>
</svg>
